<?xml version="1.0" encoding="UTF-8" standalone="no"?>
<!-- Created with Inkscape (http://www.inkscape.org/) -->

<svg
   xmlns:dc="http://purl.org/dc/elements/1.1/"
   xmlns:cc="http://creativecommons.org/ns#"
   xmlns:rdf="http://www.w3.org/1999/02/22-rdf-syntax-ns#"
   xmlns:svg="http://www.w3.org/2000/svg"
   xmlns="http://www.w3.org/2000/svg"
   xmlns:sodipodi="http://sodipodi.sourceforge.net/DTD/sodipodi-0.dtd"
   xmlns:inkscape="http://www.inkscape.org/namespaces/inkscape"
   width="708.66138"
   height="531.49603"
   id="svg2"
   version="1.1"
   inkscape:version="0.48.5 r10040"
   sodipodi:docname="astarexample.png">
  <defs
     id="defs4" />
  <sodipodi:namedview
     id="base"
     pagecolor="#ffffff"
     bordercolor="#666666"
     borderopacity="1.0"
     inkscape:pageopacity="0.0"
     inkscape:pageshadow="2"
     inkscape:zoom="1.63"
     inkscape:cx="480.69939"
     inkscape:cy="209.07975"
     inkscape:document-units="px"
     inkscape:current-layer="layer1"
     showgrid="false"
     units="cm"
     inkscape:window-width="1145"
     inkscape:window-height="726"
     inkscape:window-x="0"
     inkscape:window-y="1"
     inkscape:window-maximized="0" />
  <metadata
     id="metadata7">
    <rdf:RDF>
      <cc:Work
         rdf:about="">
        <dc:format>image/svg+xml</dc:format>
        <dc:type
           rdf:resource="http://purl.org/dc/dcmitype/StillImage" />
        <dc:title></dc:title>
      </cc:Work>
    </rdf:RDF>
  </metadata>
  <g
     inkscape:label="Layer 1"
     inkscape:groupmode="layer"
     id="layer1"
     transform="translate(0,-520.8648)">
    <path
       sodipodi:type="arc"
       style="fill:#1f0b7d;fill-opacity:1;fill-rule:evenodd;stroke:#000000;stroke-width:1.24699998000000001;stroke-linecap:square;stroke-linejoin:miter;stroke-miterlimit:4;stroke-opacity:1;stroke-dasharray:none;stroke-dashoffset:0.10000000000000001"
       id="path3004"
       sodipodi:cx="79"
       sodipodi:cy="100.33069"
       sodipodi:rx="17"
       sodipodi:ry="17"
       d="m 96,100.33069 a 17,17 0 1 1 -34,0 17,17 0 1 1 34,0 z"
       transform="matrix(0.99299231,0,0,0.99299231,-0.56989258,754.85675)" />
    <text
       xml:space="preserve"
       style="font-size:8px;font-style:normal;font-variant:normal;font-weight:normal;font-stretch:normal;text-align:start;line-height:125%;letter-spacing:0px;word-spacing:0px;writing-mode:lr-tb;text-anchor:start;fill:#f2f2ec;fill-opacity:1;stroke:none;font-family:Sans;-inkscape-font-specification:Sans"
       x="72"
       y="859.36084"
       id="text3006"
       sodipodi:linespacing="125%"><tspan
         sodipodi:role="line"
         id="tspan3008"
         x="72"
         y="859.36084"
         style="font-size:20px;font-style:normal;font-variant:normal;font-weight:normal;font-stretch:normal;text-align:start;line-height:125%;writing-mode:lr-tb;text-anchor:start;fill:#f2f2ec;fill-opacity:1;font-family:Sans;-inkscape-font-specification:Sans">a</tspan></text>
    <g
       id="g3015"
       transform="translate(195,-199)">
      <path
         sodipodi:type="arc"
         style="fill:#e7fa16;fill-opacity:1;fill-rule:evenodd;stroke:#000000;stroke-width:1.24699998;stroke-linecap:square;stroke-linejoin:miter;stroke-miterlimit:4;stroke-opacity:1;stroke-dasharray:none;stroke-dashoffset:0.1"
         id="path3017"
         sodipodi:cx="79"
         sodipodi:cy="100.33069"
         sodipodi:rx="17"
         sodipodi:ry="17"
         d="m 96,100.33069 a 17,17 0 1 1 -34,0 17,17 0 1 1 34,0 z"
         transform="matrix(0.99299231,0,0,0.99299231,0.43010742,698.85675)" />
      <text
         xml:space="preserve"
         style="font-size:8px;font-style:normal;font-variant:normal;font-weight:normal;font-stretch:normal;text-align:start;line-height:125%;letter-spacing:0px;word-spacing:0px;writing-mode:lr-tb;text-anchor:start;fill:#000000;fill-opacity:1;stroke:none;font-family:Sans;-inkscape-font-specification:Sans"
         x="73"
         y="803.36084"
         id="text3019"
         sodipodi:linespacing="125%"><tspan
           sodipodi:role="line"
           id="tspan3021"
           x="73"
           y="803.36084"
           style="font-size:20px;font-style:normal;font-variant:normal;font-weight:normal;font-stretch:normal;text-align:start;line-height:125%;writing-mode:lr-tb;text-anchor:start;font-family:Sans;-inkscape-font-specification:Sans">c</tspan></text>
    </g>
    <path
       sodipodi:type="arc"
       style="fill:#fa4a16;fill-opacity:1;fill-rule:evenodd;stroke:#000000;stroke-width:1.24699998000000001;stroke-linecap:square;stroke-linejoin:miter;stroke-miterlimit:4;stroke-opacity:1;stroke-dasharray:none;stroke-dashoffset:0.10000000000000001"
       id="path3025"
       sodipodi:cx="79"
       sodipodi:cy="100.33069"
       sodipodi:rx="17"
       sodipodi:ry="17"
       d="m 96,100.33069 a 17,17 0 1 1 -34,0 17,17 0 1 1 34,0 z"
       transform="matrix(0.99299231,0,0,0.99299231,210.43011,842.85675)" />
    <text
       xml:space="preserve"
       style="font-size:8px;font-style:normal;font-variant:normal;font-weight:normal;font-stretch:normal;text-align:start;line-height:125%;letter-spacing:0px;word-spacing:0px;writing-mode:lr-tb;text-anchor:start;fill:#000000;fill-opacity:1;stroke:none;font-family:Sans;-inkscape-font-specification:Sans"
       x="283"
       y="947.36084"
       id="text3027"
       sodipodi:linespacing="125%"><tspan
         sodipodi:role="line"
         id="tspan3029"
         x="283"
         y="947.36084"
         style="font-size:20px;font-style:normal;font-variant:normal;font-weight:normal;font-stretch:normal;text-align:start;line-height:125%;writing-mode:lr-tb;text-anchor:start;font-family:Sans;-inkscape-font-specification:Sans">e</tspan></text>
    <text
       xml:space="preserve"
       style="font-size:8px;font-style:normal;font-variant:normal;font-weight:normal;font-stretch:normal;text-align:start;line-height:125%;letter-spacing:0px;word-spacing:0px;writing-mode:lr-tb;text-anchor:start;fill:#000000;fill-opacity:1;stroke:none;font-family:Sans;-inkscape-font-specification:Sans"
       x="243"
       y="128.33069"
       id="text3031"
       sodipodi:linespacing="125%"
       transform="translate(0,698.03017)"><tspan
         sodipodi:role="line"
         id="tspan3033"
         x="243"
         y="128.33069" /></text>
    <g
       id="g3039"
       transform="translate(233,-33)">
      <path
         sodipodi:type="arc"
         style="fill:#e7fa16;fill-opacity:1;fill-rule:evenodd;stroke:#000000;stroke-width:1.24699998;stroke-linecap:square;stroke-linejoin:miter;stroke-miterlimit:4;stroke-opacity:1;stroke-dasharray:none;stroke-dashoffset:0.1"
         id="path3041"
         sodipodi:cx="79"
         sodipodi:cy="100.33069"
         sodipodi:rx="17"
         sodipodi:ry="17"
         d="m 96,100.33069 a 17,17 0 1 1 -34,0 17,17 0 1 1 34,0 z"
         transform="matrix(0.99299231,0,0,0.99299231,0.43010742,698.85675)" />
      <text
         xml:space="preserve"
         style="font-size:8px;font-style:normal;font-variant:normal;font-weight:normal;font-stretch:normal;text-align:start;line-height:125%;letter-spacing:0px;word-spacing:0px;writing-mode:lr-tb;text-anchor:start;fill:#000000;fill-opacity:1;stroke:none;font-family:Sans;-inkscape-font-specification:Sans"
         x="73"
         y="803.36084"
         id="text3043"
         sodipodi:linespacing="125%"><tspan
           sodipodi:role="line"
           id="tspan3045"
           x="73"
           y="803.36084"
           style="font-size:20px;font-style:normal;font-variant:normal;font-weight:normal;font-stretch:normal;text-align:start;line-height:125%;writing-mode:lr-tb;text-anchor:start;font-family:Sans;-inkscape-font-specification:Sans">y</tspan></text>
    </g>
    <g
       transform="translate(233,-33)"
       id="g3047">
      <path
         transform="matrix(0.99299231,0,0,0.99299231,0.43010742,698.85675)"
         d="m 96,100.33069 c 0,9.38884 -7.611159,17 -17,17 -9.388841,0 -17,-7.61116 -17,-17 0,-9.388842 7.611159,-17.000002 17,-17.000002 9.388841,0 17,7.61116 17,17.000002 z"
         sodipodi:ry="17"
         sodipodi:rx="17"
         sodipodi:cy="100.33069"
         sodipodi:cx="79"
         id="path3049"
         style="fill:#e7fa16;fill-opacity:1;fill-rule:evenodd;stroke:#000000;stroke-width:1.24699998;stroke-linecap:square;stroke-linejoin:miter;stroke-miterlimit:4;stroke-opacity:1;stroke-dasharray:none;stroke-dashoffset:0.1"
         sodipodi:type="arc" />
      <text
         sodipodi:linespacing="125%"
         id="text3051"
         y="803.36084"
         x="73"
         style="font-size:8px;font-style:normal;font-variant:normal;font-weight:normal;font-stretch:normal;text-align:start;line-height:125%;letter-spacing:0px;word-spacing:0px;writing-mode:lr-tb;text-anchor:start;fill:#000000;fill-opacity:1;stroke:none;font-family:Sans;-inkscape-font-specification:Sans"
         xml:space="preserve"><tspan
           style="font-size:20px;font-style:normal;font-variant:normal;font-weight:normal;font-stretch:normal;text-align:start;line-height:125%;writing-mode:lr-tb;text-anchor:start;font-family:Sans;-inkscape-font-specification:Sans"
           y="803.36084"
           x="73"
           id="tspan3053"
           sodipodi:role="line">d</tspan></text>
    </g>
    <g
       id="g3055"
       transform="translate(420,98)">
      <path
         sodipodi:type="arc"
         style="fill:#e7fa16;fill-opacity:1;fill-rule:evenodd;stroke:#000000;stroke-width:1.24699998;stroke-linecap:square;stroke-linejoin:miter;stroke-miterlimit:4;stroke-opacity:1;stroke-dasharray:none;stroke-dashoffset:0.1"
         id="path3057"
         sodipodi:cx="79"
         sodipodi:cy="100.33069"
         sodipodi:rx="17"
         sodipodi:ry="17"
         d="m 96,100.33069 c 0,9.38884 -7.611159,17 -17,17 -9.388841,0 -17,-7.61116 -17,-17 0,-9.388842 7.611159,-17.000002 17,-17.000002 9.388841,0 17,7.61116 17,17.000002 z"
         transform="matrix(0.99299231,0,0,0.99299231,0.43010742,698.85675)" />
      <text
         xml:space="preserve"
         style="font-size:8px;font-style:normal;font-variant:normal;font-weight:normal;font-stretch:normal;text-align:start;line-height:125%;letter-spacing:0px;word-spacing:0px;writing-mode:lr-tb;text-anchor:start;fill:#000000;fill-opacity:1;stroke:none;font-family:Sans;-inkscape-font-specification:Sans"
         x="73"
         y="803.36084"
         id="text3059"
         sodipodi:linespacing="125%"><tspan
           sodipodi:role="line"
           id="tspan3061"
           x="73"
           y="803.36084"
           style="font-size:20px;font-style:normal;font-variant:normal;font-weight:normal;font-stretch:normal;text-align:start;line-height:125%;writing-mode:lr-tb;text-anchor:start;font-family:Sans;-inkscape-font-specification:Sans">g</tspan></text>
    </g>
    <g
       transform="translate(407,-131)"
       id="g3063">
      <path
         transform="matrix(0.99299231,0,0,0.99299231,0.43010742,698.85675)"
         d="m 96,100.33069 a 17,17 0 1 1 -34,0 17,17 0 1 1 34,0 z"
         sodipodi:ry="17"
         sodipodi:rx="17"
         sodipodi:cy="100.33069"
         sodipodi:cx="79"
         id="path3065"
         style="fill:#e7fa16;fill-opacity:1;fill-rule:evenodd;stroke:#000000;stroke-width:1.24699998;stroke-linecap:square;stroke-linejoin:miter;stroke-miterlimit:4;stroke-opacity:1;stroke-dasharray:none;stroke-dashoffset:0.1"
         sodipodi:type="arc" />
      <text
         sodipodi:linespacing="125%"
         id="text3067"
         y="803.36084"
         x="73"
         style="font-size:8px;font-style:normal;font-variant:normal;font-weight:normal;font-stretch:normal;text-align:start;line-height:125%;letter-spacing:0px;word-spacing:0px;writing-mode:lr-tb;text-anchor:start;fill:#000000;fill-opacity:1;stroke:none;font-family:Sans;-inkscape-font-specification:Sans"
         xml:space="preserve"><tspan
           style="font-size:20px;font-style:normal;font-variant:normal;font-weight:normal;font-stretch:normal;text-align:start;line-height:125%;writing-mode:lr-tb;text-anchor:start;font-family:Sans;-inkscape-font-specification:Sans"
           y="803.36084"
           x="73"
           id="tspan3069"
           sodipodi:role="line">f</tspan></text>
    </g>
    <path
       transform="matrix(0.99299231,0,0,0.99299231,550.43011,658.85675)"
       d="m 96,100.33069 a 17,17 0 1 1 -34,0 17,17 0 1 1 34,0 z"
       sodipodi:ry="17"
       sodipodi:rx="17"
       sodipodi:cy="100.33069"
       sodipodi:cx="79"
       id="path3073"
       style="fill:#6ee570;fill-opacity:1;fill-rule:evenodd;stroke:#000000;stroke-width:1.24699998000000001;stroke-linecap:square;stroke-linejoin:miter;stroke-miterlimit:4;stroke-opacity:1;stroke-dasharray:none;stroke-dashoffset:0.10000000000000001"
       sodipodi:type="arc" />
    <text
       sodipodi:linespacing="125%"
       id="text3075"
       y="763.36084"
       x="623"
       style="font-size:8px;font-style:normal;font-variant:normal;font-weight:normal;font-stretch:normal;text-align:start;line-height:125%;letter-spacing:0px;word-spacing:0px;writing-mode:lr-tb;text-anchor:start;fill:#6ee570;fill-opacity:1;stroke:none;font-family:Sans;-inkscape-font-specification:Sans"
       xml:space="preserve"><tspan
         style="font-size:20px;font-style:normal;font-variant:normal;font-weight:normal;font-stretch:normal;text-align:start;line-height:125%;writing-mode:lr-tb;text-anchor:start;font-family:Sans;-inkscape-font-specification:Sans;fill:#2b1a1a;fill-opacity:1"
         y="763.36084"
         x="623"
         id="tspan3077"
         sodipodi:role="line">h</tspan></text>
    <g
       transform="translate(38,-111)"
       id="g3079">
      <path
         transform="matrix(0.99299231,0,0,0.99299231,0.43010742,698.85675)"
         d="m 96,100.33069 a 17,17 0 1 1 -34,0 17,17 0 1 1 34,0 z"
         sodipodi:ry="17"
         sodipodi:rx="17"
         sodipodi:cy="100.33069"
         sodipodi:cx="79"
         id="path3081"
         style="fill:#e7fa16;fill-opacity:1;fill-rule:evenodd;stroke:#000000;stroke-width:1.24699998;stroke-linecap:square;stroke-linejoin:miter;stroke-miterlimit:4;stroke-opacity:1;stroke-dasharray:none;stroke-dashoffset:0.1"
         sodipodi:type="arc" />
      <text
         sodipodi:linespacing="125%"
         id="text3083"
         y="803.36084"
         x="73"
         style="font-size:8px;font-style:normal;font-variant:normal;font-weight:normal;font-stretch:normal;text-align:start;line-height:125%;letter-spacing:0px;word-spacing:0px;writing-mode:lr-tb;text-anchor:start;fill:#000000;fill-opacity:1;stroke:none;font-family:Sans;-inkscape-font-specification:Sans"
         xml:space="preserve"><tspan
           style="font-size:20px;font-style:normal;font-variant:normal;font-weight:normal;font-stretch:normal;text-align:start;line-height:125%;writing-mode:lr-tb;text-anchor:start;font-family:Sans;-inkscape-font-specification:Sans"
           y="803.36084"
           x="73"
           id="tspan3085"
           sodipodi:role="line">b</tspan></text>
    </g>
    <path
       style="fill:#2b1a1a;fill-opacity:1;fill-rule:evenodd;stroke:#000000;stroke-width:1.24699998;stroke-linecap:square;stroke-linejoin:miter;stroke-miterlimit:4;stroke-opacity:1;stroke-dasharray:none;stroke-dashoffset:0.1"
       id="path3884"
       d="m 63.230285,305.70764 c -3.126528,-0.21586 -5.621307,-1.81474 -8.103185,-3.58823 -4.748234,-3.79176 -8.060123,-8.95999 -11.055036,-14.16592 -3.803748,-7.86397 -6.839664,-16.06982 -10.024043,-24.19691 -3.242245,-8.06883 -5.441504,-16.43523 -6.612002,-25.03853 -0.487608,-5.04487 -1.019244,-10.54307 1.047446,-15.34593 0.318543,-0.74027 0.7624,-1.42009 1.1436,-2.13013 2.344084,-3.78542 5.82687,-6.24521 9.901288,-7.87995 2.886144,-0.95327 5.930266,-1.06793 8.941185,-1.12966 2.529532,-0.0509 5.040801,-0.0466 7.546087,0.32075 2.1241,0.56035 4.123271,0.35319 6.170844,-0.35 2.754469,-0.80685 4.790927,-2.4972 6.817931,-4.44347 2.572375,-3.06822 5.215722,-6.11452 7.286272,-9.55342 0.656212,-1.50039 2.814169,-5.21499 1.460019,-6.81156 -0.240768,-0.28388 -0.608898,-0.42832 -0.913346,-0.64248 -2.347132,-1.17946 -3.665044,-1.81249 -4.300914,-4.48818 -0.04451,-1.86068 1.329612,-3.20477 2.4536,-4.52848 1.263853,-1.36454 2.977314,-2.06542 4.786513,-2.33938 1.611435,-0.18553 3.239341,-0.14274 4.858582,-0.13708 1.65811,0.0106 3.316227,0.018 4.974366,0.022 1.68306,0.0508 3.32724,0.0443 4.979324,-0.28687 0.978899,-0.38999 0.493173,-0.18714 1.457207,-0.60846 0,0 -0.564642,0.44675 -0.564642,0.44675 l 0,0 c -0.967214,0.41875 -0.478359,0.21993 -1.466656,0.59625 -1.654508,0.32495 -3.304321,0.32006 -4.987827,0.27539 -1.658153,-0.004 -3.316282,-0.0117 -4.974407,-0.0221 -1.617077,-0.005 -3.243334,-0.0479 -4.851864,0.14618 -1.648312,0.26131 -2.298951,0.29178 -3.547689,1.62628 -1.109684,1.3108 -2.496745,2.62915 -2.482721,4.46784 0.622663,2.6633 1.95378,3.2608 4.274722,4.44351 0.311092,0.22526 0.686684,0.3813 0.933277,0.67577 1.379863,1.64776 -0.755133,5.32207 -1.429295,6.87283 -2.063377,3.44826 -4.714342,6.49102 -7.278803,9.5709 -2.338345,2.25624 -4.920644,4.15571 -8.051973,5.15978 -2.056388,0.69096 -4.063784,0.87845 -6.19107,0.32269 -2.502942,-0.36185 -5.012904,-0.3604 -7.539139,-0.31107 -3.00688,0.0646 -6.04714,0.18414 -8.925416,1.15048 -3.701894,1.50299 -6.529286,3.68627 -8.678551,7.13996 -0.382891,0.70636 -0.828404,1.38221 -1.148672,2.11908 -2.080697,4.78723 -1.545855,10.28225 -1.062226,15.31622 1.166796,8.59834 3.363803,16.95958 6.603824,25.02344 3.182963,8.12385 6.217876,16.32622 10.018763,24.18761 2.98977,5.19706 6.295548,10.35779 11.039034,14.13951 2.472058,1.76268 4.962228,3.35612 8.078085,3.55133 0,0 -0.582492,0.42321 -0.582492,0.42321 z"
       inkscape:connector-curvature="0"
       transform="translate(0,520.8648)" />
    <path
       style="fill:#2b1a1a;fill-opacity:1;fill-rule:evenodd;stroke:#000000;stroke-width:1.24699998;stroke-linecap:square;stroke-linejoin:miter;stroke-miterlimit:4;stroke-opacity:1;stroke-dasharray:none;stroke-dashoffset:0.1"
       id="path3886"
       d="m 114.67924,139.181 c -0.25311,-5.33515 -0.53603,-10.67778 -0.84335,-16.01301 -0.65449,-11.7165 -0.86719,-23.451344 -1.04211,-35.182922 -0.11533,-6.210204 0.307,-12.632305 4.24835,-17.734744 0.59893,-0.775363 1.3181,-1.449898 1.97715,-2.174847 0.71393,-0.580187 1.37791,-1.227931 2.1418,-1.740561 2.73128,-1.832909 5.84171,-2.934418 8.90291,-4.062204 8.68503,-3.199677 -1.68616,0.704373 7.84072,-2.904826 8.13866,-3.67093 16.27079,-7.232917 24.95323,-9.390966 7.01618,-1.324924 13.98353,-2.84376 21.06134,-3.810254 5.46628,-0.653427 10.97188,-0.819403 16.47123,-0.89629 3.63529,-0.290387 7.07759,0.28656 10.50153,1.468675 3.49559,1.28835 7.1734,1.883353 10.81037,2.611699 3.26223,0.758513 6.45125,1.780697 9.69585,2.607944 2.99242,0.786392 5.76353,2.210068 8.54148,3.54281 1.75473,0.720565 3.15843,1.878272 4.5119,3.161423 0.72271,0.809609 1.37666,1.676447 2.06034,2.518463 0,0 -0.61776,0.369824 -0.61776,0.369824 l 0,0 c -0.68156,-0.839747 -1.33349,-1.704343 -2.05549,-2.510469 -1.34791,-1.279274 -2.75289,-2.424126 -4.49981,-3.142482 -2.77572,-1.32879 -5.54244,-2.752056 -8.53355,-3.531053 -3.2431,-0.828817 -6.43137,-1.85094 -9.6937,-2.604848 -3.63944,-0.728566 -7.3186,-1.328555 -10.81582,-2.619642 -3.4205,-1.173511 -6.85884,-1.736657 -10.48724,-1.448318 -5.49773,0.07824 -11.00175,0.246223 -16.46602,0.903351 -7.07585,0.96994 -14.0427,2.48709 -21.05664,3.816467 -8.67865,2.167238 -16.80736,5.734915 -24.94803,9.397677 -10.14136,3.839224 1.37945,-0.497993 -7.84077,2.904762 -2.5271,0.932634 -5.42331,1.790825 -7.66803,3.349715 -0.75476,0.524159 -1.43061,1.153684 -2.14591,1.730526 -0.66055,0.721461 -1.38092,1.392395 -1.98164,2.164384 -3.95534,5.083048 -4.38269,11.493905 -4.26676,17.695956 0.17464,11.730654 0.38689,23.46458 1.04071,35.18019 0.30792,5.33646 0.58863,10.6805 0.84524,16.0167 0,0 -0.64152,0.32687 -0.64152,0.32687 z"
       inkscape:connector-curvature="0"
       transform="translate(0,520.8648)" />
    <path
       style="fill:#2b1a1a;fill-opacity:1;fill-rule:evenodd;stroke:#000000;stroke-width:1.24699998;stroke-linecap:square;stroke-linejoin:miter;stroke-miterlimit:4;stroke-opacity:1;stroke-dasharray:none;stroke-dashoffset:0.1"
       id="path3888"
       d="m 277.32076,108.81107 c -0.0495,2.77375 -0.10595,5.49599 0.52017,8.20869 1.6933,4.62969 3.14097,9.33874 4.4666,14.08673 1.06692,4.53427 2.53447,8.87042 4.92928,12.87429 2.21981,3.53907 4.19527,7.19568 5.66164,11.11175 1.2318,3.44676 2.71898,6.78549 3.85445,10.26805 1.09414,4.33083 1.30325,8.81355 1.79775,13.23786 0.28294,3.24772 0.99139,6.43443 1.44883,9.65868 0.17157,1.90221 0.68508,3.74846 1.33228,5.53732 0.7727,1.75134 1.34192,3.53847 1.64999,5.42726 0.32502,2.42544 0.81059,4.81818 1.07164,7.25477 0.0328,0.36088 0.0656,0.72176 0.0984,1.08264 0,0 -0.63855,0.33266 -0.63855,0.33266 l 0,0 c -0.0326,-0.36054 -0.0652,-0.72108 -0.0979,-1.08162 -0.25954,-2.43567 -0.74468,-4.82713 -1.06982,-7.2513 -0.30435,-1.88529 -0.87166,-3.6682 -1.6436,-5.41546 -0.64917,-1.79306 -1.16766,-3.64335 -1.33935,-5.5504 -0.45618,-3.22515 -1.16649,-6.41219 -1.44982,-9.66055 -0.49407,-4.41978 -0.70328,-8.89747 -1.79081,-13.22495 -1.13401,-3.48203 -2.62161,-6.81945 -3.85295,-10.26533 -1.46358,-3.91257 -3.43782,-7.56492 -5.65521,-11.10042 -2.39784,-4.00943 -3.87136,-8.3501 -4.93869,-12.89104 -1.32525,-4.74918 -2.77224,-9.45964 -4.46813,-14.08955 -0.63169,-2.71751 -0.57977,-5.44353 -0.52777,-8.22321 0,0 0.64152,-0.32687 0.64152,-0.32687 z"
       inkscape:connector-curvature="0"
       transform="translate(0,520.8648)" />
    <path
       style="fill:#2b1a1a;fill-opacity:1;fill-rule:evenodd;stroke:#000000;stroke-width:1.24699998;stroke-linecap:square;stroke-linejoin:miter;stroke-miterlimit:4;stroke-opacity:1;stroke-dasharray:none;stroke-dashoffset:0.1"
       id="path3890"
       d="m 144.00895,178.28443 c 3.69207,0.0356 7.38529,-0.14576 11.06645,0.24116 2.93942,0.30896 5.65843,0.84475 8.57098,1.35874 8.41709,1.98746 16.5121,5.08272 24.50262,8.34649 6.64538,2.78745 13.30813,5.47304 20.2707,7.3548 8.70619,1.94787 17.47416,3.58986 26.15838,5.63809 6.70005,1.40116 12.91127,4.3098 19.05917,7.22055 3.72722,1.72395 7.60328,3.08824 11.18055,5.11789 1.83724,1.35898 2.32999,3.3341 2.5154,5.48907 0.0827,2.69147 0.14319,5.39473 -0.0909,8.07899 -0.3895,3.43895 -1.99991,6.41236 -3.53059,9.44516 -1.40208,3.27326 -3.5394,6.12983 -5.28348,9.21039 -1.01692,1.87133 -1.55548,3.84898 -1.85629,5.94256 -0.36961,2.56825 -0.38857,2.81964 1.62764,4.32089 1.74269,1.23352 3.272,2.93137 5.45475,3.26584 2.30497,-0.67674 3.35094,-3.15979 4.33411,-5.15287 1.00656,-2.46004 2.19335,-4.64832 4.08084,-6.52706 1.34932,-1.43925 2.87754,-2.60737 4.5123,-3.69936 1.59187,-1.0579 3.18715,-2.10616 4.8135,-3.09845 1.40823,-0.88153 2.78977,-1.74221 4.39693,-2.24194 0.98038,-0.17401 0.47315,-0.10119 1.52257,-0.21224 0,0 -0.57788,0.42948 -0.57788,0.42948 l 0,0 c -1.0448,0.11644 -0.54045,0.0397 -1.51405,0.22348 -1.2007,0.3802 -2.10725,0.73346 -3.15598,1.54168 -1.63627,0.99123 -3.23095,2.02723 -4.81459,3.09562 -1.63553,1.08955 -3.1709,2.24495 -4.51748,3.6865 -1.89523,1.86968 -3.09109,4.04111 -4.09037,6.50505 -1.24293,2.53722 -2.59228,5.137 -5.57912,5.86389 -2.18431,-0.3736 -3.72501,-2.04672 -5.47391,-3.29455 -2.03008,-1.51283 -2.03704,-1.81326 -1.66535,-4.38821 0.29753,-2.1014 0.82938,-4.08631 1.84491,-5.96682 1.73584,-3.08448 3.88659,-5.93257 5.28485,-9.20734 1.52734,-3.02696 3.14635,-5.98875 3.54231,-9.42048 0.23917,-2.68024 0.17462,-5.37999 0.0966,-8.06792 -0.17844,-2.13304 -0.65416,-4.08907 -2.48019,-5.42874 -3.57762,-2.0251 -7.45356,-3.387 -11.17764,-5.11346 -6.14498,-2.9079 -12.3538,-5.81043 -19.05068,-7.20799 -8.68514,-2.04671 -17.45406,-3.68721 -26.15972,-5.64004 -6.96322,-1.88735 -13.62814,-4.57426 -20.27569,-7.36214 -7.98734,-3.26064 -16.07898,-6.35449 -24.49394,-8.33383 -2.92877,-0.5156 -5.61208,-1.04468 -8.56647,-1.35237 -3.68024,-0.38327 -7.3728,-0.20056 -11.06367,-0.2373 0,0 0.58249,-0.42321 0.58249,-0.42321 z"
       inkscape:connector-curvature="0"
       transform="translate(0,520.8648)" />
    <path
       style="fill:#e50b0b;fill-opacity:1;fill-rule:evenodd;stroke:#ef1010;stroke-width:1.24699998000000001;stroke-linecap:square;stroke-linejoin:miter;stroke-miterlimit:4;stroke-opacity:1;stroke-dasharray:none;stroke-dashoffset:0.10000000000000001"
       id="path3892"
       d="m 107.67924,333.181 c -0.26224,-3.58071 0.51808,-6.90138 1.85782,-10.19358 2.21403,-5.21296 6.06665,-9.31159 10.12954,-13.1366 8.26056,-6.77564 17.23743,-12.60511 26.88607,-17.18469 7.298,-3.29464 15.18382,-4.17942 23.09944,-4.28047 7.82386,0.14305 15.34142,2.29813 22.56363,5.1443 7.01425,2.99792 13.37854,7.31053 19.66445,11.58779 6.82028,4.48123 12.54123,10.32365 18.4355,15.90614 1.00223,0.98627 1.99944,1.97766 3.00669,2.9588 2.21287,2.1555 3.3891,3.16746 5.4424,5.46102 2.29864,2.56762 4.35987,5.34634 6.40444,8.11531 2.54914,3.83247 5.14389,7.61867 7.84715,11.34191 2.24646,3.00042 4.16219,6.19762 5.79426,9.56672 1.68945,3.50801 3.45871,6.97623 5.10205,10.50642 1.43888,2.9666 2.97056,5.87871 4.55566,8.76813 1.15364,1.92564 1.43086,4.12047 1.90267,6.26284 0.45981,1.58914 0.73138,3.20327 0.86062,4.84895 -9.8e-4,1.43952 0.40775,2.83211 0.69661,4.23122 0,0 -0.63475,0.33985 -0.63475,0.33985 l 0,0 c -0.28859,-1.40197 -0.70202,-2.79699 -0.70082,-4.23921 -0.12734,-1.64275 -0.39479,-3.25423 -0.85593,-4.84007 -0.47263,-2.13518 -0.741,-4.32532 -1.89273,-6.24494 -1.58581,-2.89084 -3.11836,-5.80427 -4.55801,-8.77227 -1.64308,-3.52991 -3.41218,-6.99779 -5.10151,-10.50545 -1.62991,-3.36545 -3.54376,-6.5588 -5.78787,-9.55569 -2.70344,-3.72289 -5.29718,-7.50956 -7.84685,-11.34142 -2.04301,-2.76643 -4.10258,-5.54251 -6.39974,-8.10748 -2.0471,-2.28577 -3.23529,-3.31045 -5.44125,-5.45915 -1.00695,-0.98081 -2.00398,-1.97175 -3.00597,-2.95762 -5.89146,-5.58018 -11.6111,-11.41856 -18.42934,-15.89633 -6.28291,-4.27338 -12.64322,-8.58342 -19.65568,-11.5744 -7.21754,-2.83953 -14.73028,-4.98744 -22.54761,-5.12139 -7.9116,0.10926 -15.79059,1.00154 -23.08066,4.30511 -1.45188,0.69086 -2.92631,1.33616 -4.35562,2.07257 -7.62948,3.93081 -14.57088,9.11026 -21.30127,14.39001 -4.06323,3.81636 -7.92116,7.90433 -10.14186,13.10833 -1.34601,3.28263 -2.13317,6.59367 -1.87001,10.16847 0,0 -0.64152,0.32687 -0.64152,0.32687 z"
       inkscape:connector-curvature="0"
       transform="translate(0,520.8648)" />
    <path
       style="fill:#2b1a1a;fill-opacity:1;fill-rule:evenodd;stroke:#000000;stroke-width:1.24699998;stroke-linecap:square;stroke-linejoin:miter;stroke-miterlimit:4;stroke-opacity:1;stroke-dasharray:none;stroke-dashoffset:0.1"
       id="path3894"
       d="m 315.32076,273.0503 c 0,4.91705 0,9.8341 0,14.75115 0.29001,10.94222 -0.56201,21.85226 -1.48807,32.74438 -0.70028,6.79242 -1.6784,13.55183 -2.23816,20.35836 -0.30587,3.03702 -0.15747,6.09674 -0.414,9.13357 -0.38055,3.97449 -1.2564,7.87823 -1.92772,11.80898 -0.51897,3.16806 -0.7311,6.36771 -1.18631,9.54352 -0.34645,2.33935 -0.56292,4.69484 -0.6929,7.05534 -0.19494,1.01578 -0.0857,0.51034 -0.32777,1.51631 0,0 -0.6491,0.31155 -0.6491,0.31155 l 0,0 c 0.24347,-1.00039 0.13237,-0.49887 0.33357,-1.5045 0.12882,-2.36236 0.34379,-4.71981 0.69008,-7.061 0.4558,-3.17636 0.67013,-6.37601 1.18547,-9.54523 0.66955,-3.92943 1.54694,-7.83108 1.93039,-11.80358 0.26247,-3.03628 0.10729,-6.09644 0.41411,-9.13336 0.55795,-6.80677 1.53574,-13.56626 2.23806,-20.35854 0.92642,-10.89027 1.7812,-21.79846 1.49083,-32.73892 0,-4.91705 0,-9.83411 0,-14.75116 0,0 0.64152,-0.32687 0.64152,-0.32687 z"
       inkscape:connector-curvature="0"
       transform="translate(0,520.8648)" />
    <path
       style="fill:#2b1a1a;fill-opacity:1;fill-rule:evenodd;stroke:#000000;stroke-width:1.24699998;stroke-linecap:square;stroke-linejoin:miter;stroke-miterlimit:4;stroke-opacity:1;stroke-dasharray:none;stroke-dashoffset:0.1"
       id="path3896"
       d="m 302.38245,81.148738 c 2.59363,-1.628887 4.92428,-3.648015 7.55616,-5.219818 2.78097,-1.660839 3.69465,-2.016722 6.52176,-3.355966 5.58424,-2.596922 11.54314,-4.261104 17.6759,-4.784733 5.55912,0.145049 7.72774,4.111899 10.25726,8.427362 2.37177,4.27862 2.96173,9.141389 4.15066,13.803254 0.79068,2.978558 2.18327,5.506889 4.63349,7.392141 3.2278,1.857442 6.89778,2.25592 10.53362,2.583897 4.60979,0.590295 8.87511,-0.349091 12.95993,-2.453983 3.09361,-2.446696 5.36625,-5.679073 7.75831,-8.768717 2.31332,-2.900444 5.48428,-4.68919 8.99064,-5.734086 4.17897,-0.943444 8.35921,-0.740011 12.52806,0.0652 3.67452,1.072449 7.36618,2.961693 9.45469,6.317508 0.40976,0.658391 0.69125,1.38841 1.03688,2.082615 1.51473,3.814675 1.84666,7.874375 1.94753,11.930494 0.16217,5.57432 1.21864,11.0692 3.08378,16.31443 1.30971,3.00755 2.64651,6.13827 4.75565,8.69357 0.98072,1.18819 1.94343,2.01923 3.06273,3.06213 2.62438,2.19329 5.77339,3.20138 9.10022,3.66195 2.37794,0.24579 4.77277,0.19168 7.15939,0.16985 2.08026,-0.0232 4.16059,-0.0382 6.24097,-0.0463 1.93767,-0.006 3.87536,-0.005 5.81305,-0.006 1.55251,4e-5 0.78435,0 2.30446,1e-4 0,0 -0.58249,0.4232 -0.58249,0.4232 l 0,0 c -1.52011,-9e-5 -0.75196,-6e-5 -2.30446,-9e-5 -1.93763,1e-4 -3.87527,-5.2e-4 -5.81289,0.006 -2.0803,0.008 -4.16056,0.0236 -6.24075,0.0466 -2.38878,0.0214 -4.78604,0.0742 -7.16559,-0.1785 -3.33745,-0.47111 -6.49452,-1.49436 -9.12449,-3.69868 -1.1257,-1.05019 -2.08343,-1.87732 -3.06985,-3.0739 -2.11197,-2.56192 -3.45344,-5.69743 -4.76593,-8.71154 -1.86953,-5.25136 -2.92977,-10.75308 -3.09452,-16.33459 -0.0984,-4.046101 -0.42454,-8.096278 -1.93256,-11.902808 -0.3433,-0.690204 -0.6225,-1.416194 -1.02989,-2.070614 -2.08048,-3.341982 -5.76622,-5.213734 -9.42636,-6.273578 -4.16255,-0.796423 -8.3391,-0.993335 -12.50754,-0.03726 -3.09466,0.935664 -5.73873,2.389155 -7.75908,5.010151 -2.68114,3.462109 -5.17116,7.167369 -8.98176,9.502955 -4.09783,2.089755 -8.37107,3.015495 -12.98443,2.421585 -3.64584,-0.33284 -7.32703,-0.740281 -10.55636,-2.617793 -2.45536,-1.902531 -3.86263,-4.438825 -4.65761,-7.433359 -1.18908,-4.654946 -1.77337,-9.512299 -4.1408,-13.785645 -2.52083,-4.300591 -4.6681,-8.240349 -10.21278,-8.359556 -6.12823,0.537084 -12.08138,2.203297 -17.66026,4.805102 -1.54537,0.734242 -3.75924,1.726086 -5.28802,2.64518 -2.62765,1.57974 -4.96784,3.581861 -7.55622,5.219671 0,0 -0.6705,0.262348 -0.6705,0.262348 z"
       inkscape:connector-curvature="0"
       transform="translate(0,520.8648)" />
    <path
       style="fill:#2b1a1a;fill-opacity:1;fill-rule:evenodd;stroke:#000000;stroke-width:1.24699998;stroke-linecap:square;stroke-linejoin:miter;stroke-miterlimit:4;stroke-opacity:1;stroke-dasharray:none;stroke-dashoffset:0.1"
       id="path3898"
       d="m 338.67924,237.181 c -0.3422,-2.16945 -0.70051,-4.33203 -1.10046,-6.49163 -0.67365,-2.6837 -1.83875,-5.18475 -2.37921,-7.90603 -1.38505,-6.14783 -3.60805,-12.06942 -5.95993,-17.90232 -2.6481,-5.72323 -4.16079,-11.81328 -5.08889,-18.02209 -0.42433,-2.99288 -0.52401,-6.01363 -0.5286,-9.03172 -0.0943,-2.56958 0.36872,-5.10547 0.64675,-7.65089 0.35921,-2.56111 1.09204,-5.03742 1.66532,-7.5519 0.56381,-2.60082 1.45624,-5.09484 2.4217,-7.56716 0.80775,-1.96614 2.17023,-3.62488 3.3663,-5.36107 1.74983,-2.33882 4.27217,-3.69182 7.02091,-4.52273 4.16576,-1.23717 8.45394,-1.88439 12.76589,-2.33167 3.85896,-0.11201 8.09235,-1.05472 11.84632,0.27594 0.54563,0.1934 1.04428,0.49995 1.56642,0.74993 0.43642,0.34273 0.91518,0.63752 1.30926,1.02818 2.00388,1.98649 4.19538,6.40633 5.53947,8.94267 2.22925,5.00964 3.96925,10.22703 5.81223,15.38892 2.38338,6.37336 6.29707,11.97543 9.73384,17.79636 2.76549,5.12854 5.20167,10.42838 7.74962,15.66762 2.07008,3.5608 4.73069,6.71441 6.91059,10.21457 0.29008,0.46796 0.59882,0.92485 0.87024,1.40387 0.79207,1.39794 0.64309,1.46087 1.54189,2.7991 0.94767,1.41099 2.11264,2.70898 3.20096,4.01039 2.68404,2.90491 5.08379,6.03158 7.87591,8.83405 2.18912,2.12516 4.60687,3.91671 7.24575,5.43123 2.14887,1.24501 4.59483,1.4137 6.95628,1.933 2.79788,0.76732 5.71686,0.79165 8.59558,0.87926 4.8136,0.14978 9.61739,0.1369 14.42167,-0.18954 4.28975,-0.21872 7.39759,-1.81439 10.61684,-4.48772 2.39522,-2.59691 4.68709,-5.41427 6.52048,-8.44634 1.42432,-2.8814 2.08059,-6.01868 2.56104,-9.1712 0.29987,-2.32906 0.41309,-4.65607 0.0397,-6.9759 -0.81556,-3.23204 -1.80596,-6.40199 -2.94808,-9.53289 -1.2292,-2.73104 -2.62568,-5.34229 -3.53058,-8.20754 -0.70572,-2.63389 -1.06769,-5.33687 -1.22435,-8.05403 -0.034,-2.20133 -0.18895,-4.41835 0.0597,-6.60995 0.24749,-2.43024 0.87057,-2.97925 2.9987,-3.96593 1.51228,-0.15865 2.9078,-0.61625 4.29761,-1.2127 1.02023,-0.38513 0.50717,-0.17272 1.53764,-0.64098 0,0 -0.56403,0.44752 -0.56403,0.44752 l 0,0 c -1.03348,0.46346 -0.52017,0.2513 -1.53854,0.63984 -1.3915,0.59224 -2.79348,1.02742 -4.30004,1.2096 -0.0921,-0.30489 -0.0295,-0.23062 -0.58961,0.22896 -0.92524,0.75923 -1.04193,1.86294 -1.19648,2.97422 -0.2574,2.187 -0.0951,4.40133 -0.0653,6.59889 0.15377,2.71172 0.51399,5.4092 1.21594,8.03824 0.9027,2.86502 2.30014,5.4746 3.52904,8.20475 1.14386,3.13517 2.13518,6.30912 2.95459,9.54489 0.37725,2.32652 0.27047,4.659 -0.0295,6.99584 -0.47865,3.16016 -1.13358,6.30343 -2.54914,9.19672 -1.82349,3.04241 -4.12997,5.85473 -6.5111,8.46849 -3.46554,2.90001 -7.27248,4.94106 -11.86412,5.18436 -4.80565,0.32407 -9.61114,0.33304 -14.42584,0.18382 -2.88218,-0.0893 -5.80237,-0.12079 -8.60323,-0.89007 -2.36973,-0.51201 -4.81624,-0.70227 -6.96859,-1.95133 -2.64293,-1.51891 -5.06283,-3.3189 -7.25598,-5.44743 -2.79253,-2.80475 -5.19424,-5.93271 -7.87915,-8.83941 -1.09075,-1.3047 -2.25737,-2.60595 -3.20697,-4.02057 -0.90646,-1.35035 -0.74365,-1.39027 -1.54107,-2.79769 -0.27138,-0.47898 -0.58011,-0.93582 -0.87016,-1.40373 -2.18136,-3.50214 -4.84453,-6.65712 -6.91433,-10.22109 -2.54713,-5.2375 -4.98253,-10.53556 -7.74674,-15.66258 -3.43912,-5.82485 -7.3549,-11.43093 -9.7406,-17.80829 -1.84149,-5.15879 -3.58119,-10.37257 -5.80712,-15.37987 -1.3354,-2.5202 -3.5294,-6.94786 -5.52392,-8.91678 -0.39136,-0.38634 -0.86713,-0.67659 -1.30069,-1.01489 -0.51949,-0.24605 -1.01582,-0.54856 -1.55846,-0.73814 -3.75392,-1.31148 -7.97735,-0.36833 -11.83163,-0.25541 -4.30938,0.45038 -8.59521,1.10176 -12.75753,2.34271 -0.74233,0.22871 -1.53142,0.34813 -2.22068,0.7063 -1.4005,0.72776 -2.58438,1.87742 -3.57048,3.0885 -1.19084,1.73589 -2.55906,3.38645 -3.37309,5.34596 -0.96426,2.46999 -1.86356,4.95868 -2.42627,7.55749 -0.57022,2.51307 -1.30594,4.98601 -1.66896,7.54446 -0.27683,2.54333 -0.74293,5.07657 -0.65031,7.64381 0.004,3.01486 0.10091,6.03248 0.52373,9.02233 0.92498,6.2038 2.43431,12.28909 5.0808,18.00722 2.35392,5.8369 4.57841,11.76251 5.96643,17.9142 0.53664,2.72268 1.7046,5.22298 2.37962,7.90681 0.40053,2.16387 0.75752,4.33056 1.10655,6.50332 0,0 -0.64152,0.32687 -0.64152,0.32687 z"
       inkscape:connector-curvature="0"
       transform="translate(0,520.8648)" />
    <path
       style="fill:#2b1a1a;fill-opacity:1;fill-rule:evenodd;stroke:#000000;stroke-width:1.24699998;stroke-linecap:square;stroke-linejoin:miter;stroke-miterlimit:4;stroke-opacity:1;stroke-dasharray:none;stroke-dashoffset:0.1"
       id="path3904"
       d="m 492.32076,182.93068 c 0,4.21312 0,8.42624 0,12.63936 0,4.26723 0,8.53446 0,12.80169 0,2.96775 0,5.9355 0,8.90325 0,2.95269 0,5.90538 0,8.85807 0,2.85627 0,5.71255 0,8.56882 0,2.54377 0,5.08754 0,7.63132 0,1.83625 0,3.6725 0,5.50875 0.0548,1.56521 0.0693,3.07674 -0.56591,4.53059 -1.19872,1.55829 -2.8737,2.68139 -4.39783,3.90221 -2.91087,2.26846 -5.53481,4.86845 -8.28798,7.31812 -4.44495,4.02632 -9.2802,7.58484 -14.13634,11.09201 -4.57753,3.30771 -9.14832,6.62295 -13.69109,9.97866 -3.71648,2.40147 -7.54828,4.59876 -11.26235,7.00828 -3.42653,2.2923 -6.52138,4.95779 -9.50557,7.78608 -1.82915,1.70015 -3.74132,3.19084 -5.94175,4.36761 -1.48553,1.01962 -3.01844,1.96764 -4.65372,2.72876 -0.93172,0.6801 -2.10366,0.99476 -3.02508,1.68588 -0.0379,0.0285 0.0253,0.10821 -0.008,0.14204 -0.18277,0.18602 -0.40755,0.32548 -0.61132,0.48822 -1.6834,1.48448 -0.38256,1.98053 1.07727,2.74118 3.16527,1.24874 6.46362,2.13066 9.70528,3.168 4.19861,1.40578 8.26683,3.17003 12.21425,5.16847 3.71784,1.72757 7.19403,3.79487 10.43751,6.29617 2.74939,2.23575 5.63736,4.27396 8.68667,6.07793 2.16738,1.27672 4.29861,2.61364 6.51592,3.80255 1.65451,0.84417 3.15955,1.93364 4.76135,2.86699 1.48751,0.94018 3.11608,1.69475 4.49462,2.79719 0.94542,0.93185 2.02741,1.59081 3.16878,2.25064 1.22275,0.95702 2.65228,1.53959 4.0126,2.26572 0,0 -0.60255,0.39412 -0.60255,0.39412 l 0,0 c -1.35995,-0.72767 -2.79001,-1.31129 -4.01388,-2.26768 -1.14521,-0.65945 -2.22304,-1.33148 -3.17456,-2.25968 -1.3812,-1.09404 -3.00293,-1.85143 -4.48905,-2.78847 -1.59909,-0.93621 -3.1065,-2.0205 -4.75993,-2.86482 -2.21719,-1.1909 -4.34932,-2.5282 -6.51757,-3.80509 -3.04994,-1.80812 -5.93991,-3.84789 -8.69141,-6.08532 -3.24152,-2.49688 -6.71703,-4.55774 -10.43017,-6.28478 -3.94545,-1.99515 -8.01161,-3.7565 -12.20789,-5.15896 -3.24479,-1.03695 -6.54797,-1.91774 -9.71219,-3.17835 -1.46472,-0.77086 -2.83226,-1.35021 -1.14328,-2.86773 1.5231,-1.21514 3.18867,-2.08134 4.87595,-3.03254 1.6379,-0.7729 3.08394,-1.83005 4.65244,-2.73036 1.87157,-0.578 3.09935,-2.65015 4.71371,-3.64396 2.98597,-2.82845 6.07275,-5.50442 9.50067,-7.7983 3.71296,-2.40929 7.55159,-4.59798 11.26396,-7.00421 4.54222,-3.35658 9.11332,-6.67148 13.69079,-9.97939 4.85653,-3.50536 9.69322,-7.06103 14.13906,-11.08523 2.75561,-2.44757 5.37634,-5.05163 8.28658,-7.32159 1.52396,-1.21788 3.1791,-2.34505 4.41139,-3.87064 0.65282,-1.44078 0.63323,-2.94485 0.57903,-4.50345 0,-1.83625 0,-3.6725 0,-5.50875 0,-2.54377 0,-5.08754 0,-7.63132 0,-2.85627 0,-5.71254 0,-8.56882 0,-2.95269 0,-5.90538 0,-8.85807 0,-2.96775 0,-5.9355 0,-8.90324 0,-4.26723 0,-8.53446 0,-12.8017 0,-4.21312 0,-8.42624 0,-12.63935 0,0 0.64152,-0.32688 0.64152,-0.32688 z"
       inkscape:connector-curvature="0"
       transform="translate(0,520.8648)" />
    <path
       style="fill:#2b1a1a;fill-opacity:1;fill-rule:evenodd;stroke:#000000;stroke-width:1.24699998;stroke-linecap:square;stroke-linejoin:miter;stroke-miterlimit:4;stroke-opacity:1;stroke-dasharray:none;stroke-dashoffset:0.1"
       id="path3906"
       d="m 531.54984,384.67288 c 1.20577,1.34422 2.32615,2.76451 3.24263,4.32149 1.81236,3.21141 4.72973,4.71045 7.75628,6.5993 5.15775,3.30722 10.89162,5.2474 16.77566,6.77886 6.08881,1.19711 12.13884,2.5196 18.309,3.21809 8.15759,0.20983 13.56335,-3.62722 19.61195,-8.52836 4.41617,-4.20543 8.54573,-8.79736 12.03206,-13.814 2.03754,-2.93191 3.11132,-4.98395 4.8721,-8.08169 4.54318,-8.59436 7.73668,-17.78109 10.58919,-27.04576 1.12118,-3.90495 2.06878,-7.86225 2.78844,-11.86139 0.3887,-2.15995 0.6908,-3.46264 0.44072,-5.63031 -0.089,-0.77162 -0.35287,-1.51286 -0.52931,-2.26928 -1.61428,-4.70705 -4.86634,-8.59464 -8.01058,-12.36674 -2.79472,-3.57073 -5.90113,-6.87864 -8.81066,-10.35085 -2.2811,-3.22813 -2.6243,-7.10554 -2.87216,-10.9277 -0.47433,-4.94249 1.08004,-8.03761 3.41141,-12.19231 1.87862,-2.84833 4.04326,-5.56704 6.54101,-7.90081 1.07161,-1.03021 0.56565,-0.53731 1.51973,-1.47682 0,0 0.66539,-0.27504 0.66539,-0.27504 l 0,0 c -0.95362,0.94064 -0.44792,0.4471 -1.51894,1.47874 -2.50565,2.31991 -4.66156,5.04409 -6.54979,7.8803 -2.32832,4.14408 -3.90329,7.21782 -3.42941,12.15494 0.24444,3.80687 0.57775,7.67206 2.84995,10.88791 2.9103,3.47166 6.01552,6.78063 8.81075,10.35102 3.15099,3.78133 6.40746,7.67863 8.02714,12.39582 0.17883,0.76099 0.44537,1.50658 0.5365,2.28298 0.2561,2.18188 -0.0436,3.46904 -0.43398,5.64384 -0.71824,4.00135 -1.66506,7.96088 -2.78522,11.86812 -2.85138,9.26887 -6.04352,18.45947 -10.58264,27.06003 -1.75075,3.08461 -2.84249,5.17012 -4.86834,8.09025 -3.48373,5.02155 -7.61516,9.61522 -12.02535,13.83013 -6.09473,4.9529 -12.67161,9.51093 -20.8672,9.21357 -6.17167,-0.70301 -12.2248,-2.02485 -18.31485,-3.22646 -5.88872,-1.53698 -11.62626,-3.48513 -16.78776,-6.79702 -3.03565,-1.89523 -5.95711,-3.40742 -7.77433,-6.62883 -0.91595,-1.55602 -2.03806,-2.97253 -3.2406,-4.31801 0,0 0.62121,-0.36401 0.62121,-0.36401 z"
       inkscape:connector-curvature="0"
       transform="translate(0,520.8648)" />
    <path
       style="fill:#2b1a1a;fill-opacity:1;fill-rule:evenodd;stroke:#000000;stroke-width:1.24699998;stroke-linecap:square;stroke-linejoin:miter;stroke-miterlimit:4;stroke-opacity:1;stroke-dasharray:none;stroke-dashoffset:0.1"
       id="path3908"
       d="m 513.88933,146.28443 c 2.89232,0.0422 5.62202,-1.33817 8.2689,-2.34284 4.27939,-1.62432 2.33281,-0.93104 6.81237,-2.3849 6.98261,-1.99196 14.30391,-3.78623 21.62924,-3.03647 1.6935,0.17333 3.35389,0.58593 5.03084,0.87889 1.62319,0.58169 3.31665,0.99571 4.86958,1.74507 9.05778,4.3708 14.22756,13.37768 18.66669,21.91619 1.89298,4.00383 2.33358,4.74343 3.88231,8.70686 0.62285,1.59398 1.76647,4.50427 1.85902,6.34174 0.09,1.78743 -0.53285,2.91349 -1.15391,4.49379 -2.27464,4.15014 -1.69692,8.42257 -0.2284,12.71679 1.81528,4.08595 4.84992,7.35491 7.82064,10.61644 1.68198,1.75521 3.31756,3.49977 5.71844,4.13726 1.56737,0.38145 3.18464,0.16884 4.76581,0.38921 1.44746,0.26237 2.69156,1.12534 3.81589,2.03369 0.879,0.77523 1.61432,1.68634 2.51022,2.44103 0,0 -0.61073,0.38132 -0.61073,0.38132 l 0,0 c -0.89273,-0.75729 -1.63004,-1.66568 -2.5093,-2.43957 -1.12024,-0.89845 -2.35237,-1.75294 -3.79421,-2.00112 -1.58415,-0.20718 -3.20395,-0.006 -4.77114,-0.39688 -2.40404,-0.66152 -4.05269,-2.40535 -5.74063,-4.17161 -2.97742,-3.2688 -6.01549,-6.5474 -7.83538,-10.64192 -1.47423,-4.30115 -2.07584,-8.6017 0.20539,-12.7622 0.62025,-1.55267 1.25653,-2.69619 1.17277,-4.45598 -0.0871,-1.82937 -1.23407,-4.74653 -1.85265,-6.33013 -1.54717,-3.96082 -1.98766,-4.70015 -3.87927,-8.70148 -4.43043,-8.52269 -9.58958,-17.51874 -18.63824,-21.87047 -1.55091,-0.74587 -3.24173,-1.15661 -4.86259,-1.73492 -1.67493,-0.29012 -3.3335,-0.69972 -5.02478,-0.87036 -7.3219,-0.73874 -14.63712,1.06136 -21.61452,3.05613 -4.51333,1.46908 -2.49723,0.75236 -6.81015,2.38774 -2.6526,1.00581 -5.38552,2.37389 -8.2847,2.32191 0,0 0.58249,-0.42321 0.58249,-0.42321 z"
       inkscape:connector-curvature="0"
       transform="translate(0,520.8648)" />
    <path
       style="fill:none;stroke:#000000;stroke-width:1px;stroke-linecap:butt;stroke-linejoin:miter;stroke-opacity:1"
       d="m 315.33742,424.13407 c 60.33539,39.53442 120.42816,-1.34013 158.28221,-41.71779"
       id="path3913"
       inkscape:connector-curvature="0"
       transform="translate(0,520.8648)" />
    <path
       style="fill:none;stroke:#ff40db;stroke-width:3;stroke-linecap:butt;stroke-linejoin:miter;stroke-opacity:1;stroke-miterlimit:4;stroke-dasharray:none"
       d="M 516.56442,357.2629 609.20245,251.12793"
       id="path3917"
       inkscape:connector-curvature="0"
       transform="translate(0,520.8648)" />
    <path
       style="fill:none;stroke:#ff40db;stroke-width:3;stroke-linecap:butt;stroke-linejoin:miter;stroke-opacity:1;stroke-miterlimit:4;stroke-dasharray:none"
       d="m 336.19632,248.06045 269.32515,-3.68098"
       id="path3919"
       inkscape:connector-curvature="0"
       transform="translate(0,520.8648)" />
    <text
       xml:space="preserve"
       style="font-size:8px;font-style:normal;font-variant:normal;font-weight:normal;font-stretch:normal;text-align:start;line-height:125%;letter-spacing:0px;word-spacing:0px;writing-mode:lr-tb;text-anchor:start;fill:#000000;fill-opacity:1;stroke:none;font-family:Sans;-inkscape-font-specification:Sans"
       x="427.60736"
       y="784.87616"
       id="text3921"
       sodipodi:linespacing="125%"><tspan
         sodipodi:role="line"
         id="tspan3923"
         x="427.60736"
         y="784.87616"
         style="font-size:14px;font-style:normal;font-variant:normal;font-weight:normal;font-stretch:normal;text-align:start;line-height:125%;writing-mode:lr-tb;text-anchor:start;fill:#ff00ff;font-family:Sans;-inkscape-font-specification:Sans">h(d)</tspan></text>
    <text
       sodipodi:linespacing="125%"
       id="text3925"
       y="821.68597"
       x="530.06134"
       style="font-size:8px;font-style:normal;font-variant:normal;font-weight:normal;font-stretch:normal;text-align:start;line-height:125%;letter-spacing:0px;word-spacing:0px;writing-mode:lr-tb;text-anchor:start;fill:#000000;fill-opacity:1;stroke:none;font-family:Sans;-inkscape-font-specification:Sans"
       xml:space="preserve"><tspan
         style="font-size:14px;font-style:normal;font-variant:normal;font-weight:normal;font-stretch:normal;text-align:start;line-height:125%;writing-mode:lr-tb;text-anchor:start;fill:#ff00ff;font-family:Sans;-inkscape-font-specification:Sans"
         y="821.68597"
         x="530.06134"
         id="tspan3927"
         sodipodi:role="line">h(g)</tspan></text>
  </g>
</svg>
